<svg width="52" height="52" viewBox="0 0 52 52" fill="none" xmlns="http://www.w3.org/2000/svg">
<g clip-path="url(#clip0_1155_1365)">
<g clip-path="url(#clip1_1155_1365)">
<path d="M26.092 36.8334C26.7058 36.8334 27.2204 36.6257 27.6357 36.2105C28.051 35.7952 28.2586 35.2806 28.2586 34.6667C28.2586 34.0528 28.051 33.5382 27.6357 33.123C27.2204 32.7077 26.7058 32.5 26.092 32.5C25.4781 32.5 24.9635 32.7077 24.5482 33.123C24.1329 33.5382 23.9253 34.0528 23.9253 34.6667C23.9253 35.2806 24.1329 35.7952 24.5482 36.2105C24.9635 36.6257 25.4781 36.8334 26.092 36.8334ZM23.9253 28.1667H28.2586V15.1667H23.9253V28.1667ZM26.092 47.6667C23.0947 47.6667 20.2781 47.098 17.642 45.9605C15.0058 44.823 12.7128 43.2792 10.7628 41.3292C8.81279 39.3792 7.26904 37.0862 6.13154 34.45C4.99404 31.8139 4.42529 28.9973 4.42529 26C4.42529 23.0028 4.99404 20.1862 6.13154 17.55C7.26904 14.9139 8.81279 12.6209 10.7628 10.6709C12.7128 8.72087 15.0058 7.17712 17.642 6.03962C20.2781 4.90212 23.0947 4.33337 26.092 4.33337C29.0892 4.33337 31.9058 4.90212 34.542 6.03962C37.1781 7.17712 39.4711 8.72087 41.4211 10.6709C43.3711 12.6209 44.9149 14.9139 46.0524 17.55C47.1899 20.1862 47.7586 23.0028 47.7586 26C47.7586 28.9973 47.1899 31.8139 46.0524 34.45C44.9149 37.0862 43.3711 39.3792 41.4211 41.3292C39.4711 43.2792 37.1781 44.823 34.542 45.9605C31.9058 47.098 29.0892 47.6667 26.092 47.6667ZM26.092 43.3334C30.9308 43.3334 35.0295 41.6542 38.3878 38.2959C41.7461 34.9375 43.4253 30.8389 43.4253 26C43.4253 21.1611 41.7461 17.0625 38.3878 13.7042C35.0295 10.3459 30.9308 8.66671 26.092 8.66671C21.2531 8.66671 17.1545 10.3459 13.7961 13.7042C10.4378 17.0625 8.75863 21.1611 8.75863 26C8.75863 30.8389 10.4378 34.9375 13.7961 38.2959C17.1545 41.6542 21.2531 43.3334 26.092 43.3334Z" fill="white"/>
</g>
</g>
<defs>
<clipPath id="clip0_1155_1365">
<rect width="52" height="52" fill="white"/>
</clipPath>
<clipPath id="clip1_1155_1365">
<rect width="52" height="52" fill="white" transform="translate(0.5)"/>
</clipPath>
</defs>
</svg>
