<svg width="52" height="52" viewBox="0 0 52 52" fill="none" xmlns="http://www.w3.org/2000/svg">
<g clip-path="url(#clip0_1155_1311)">
<g clip-path="url(#clip1_1155_1311)">
<g clip-path="url(#clip2_1155_1311)">
<path d="M16.6061 49.4086L4.03223 36.6286V18.3714L16.6061 5.59131H34.5689L47.1428 18.3714V36.6286L34.5689 49.4086H16.6061ZM18.7617 37.8457L25.5875 30.908L32.4134 37.8457L35.7664 34.4377L28.9406 27.5L35.7664 20.5622L32.4134 17.1542L25.5875 24.0919L18.7617 17.1542L15.4086 20.5622L22.2345 27.5L15.4086 34.4377L18.7617 37.8457ZM18.6419 44.54H32.5331L42.3527 34.5594V20.4405L32.5331 10.4599H18.6419L8.82229 20.4405V34.5594L18.6419 44.54Z" fill="white"/>
</g>
</g>
</g>
<defs>
<clipPath id="clip0_1155_1311">
<rect width="52" height="52" fill="white"/>
</clipPath>
<clipPath id="clip1_1155_1311">
<rect width="52" height="52" fill="white" transform="translate(0.5)"/>
</clipPath>
<clipPath id="clip2_1155_1311">
<rect width="49" height="49" fill="white" transform="translate(2 3)"/>
</clipPath>
</defs>
</svg>
