<svg width="52" height="52" viewBox="0 0 52 52" fill="none" xmlns="http://www.w3.org/2000/svg">
<path d="M15.1667 29.2499C16.0695 29.2499 16.8368 28.9339 17.4688 28.302C18.1007 27.6701 18.4167 26.9027 18.4167 25.9999C18.4167 25.0971 18.1007 24.3298 17.4688 23.6978C16.8368 23.0659 16.0695 22.7499 15.1667 22.7499C14.2639 22.7499 13.4965 23.0659 12.8646 23.6978C12.2326 24.3298 11.9167 25.0971 11.9167 25.9999C11.9167 26.9027 12.2326 27.6701 12.8646 28.302C13.4965 28.9339 14.2639 29.2499 15.1667 29.2499ZM26 29.2499C26.9028 29.2499 27.6701 28.9339 28.3021 28.302C28.934 27.6701 29.25 26.9027 29.25 25.9999C29.25 25.0971 28.934 24.3298 28.3021 23.6978C27.6701 23.0659 26.9028 22.7499 26 22.7499C25.0972 22.7499 24.3299 23.0659 23.6979 23.6978C23.066 24.3298 22.75 25.0971 22.75 25.9999C22.75 26.9027 23.066 27.6701 23.6979 28.302C24.3299 28.9339 25.0972 29.2499 26 29.2499ZM36.8333 29.2499C37.7361 29.2499 38.5035 28.9339 39.1354 28.302C39.7674 27.6701 40.0833 26.9027 40.0833 25.9999C40.0833 25.0971 39.7674 24.3298 39.1354 23.6978C38.5035 23.0659 37.7361 22.7499 36.8333 22.7499C35.9306 22.7499 35.1632 23.0659 34.5313 23.6978C33.8993 24.3298 33.5833 25.0971 33.5833 25.9999C33.5833 26.9027 33.8993 27.6701 34.5313 28.302C35.1632 28.9339 35.9306 29.2499 36.8333 29.2499ZM26 47.6666C23.0028 47.6666 20.1861 47.0978 17.55 45.9603C14.9139 44.8228 12.6208 43.2791 10.6708 41.3291C8.72084 39.3791 7.17709 37.086 6.03959 34.4499C4.90209 31.8138 4.33334 28.9971 4.33334 25.9999C4.33334 23.0027 4.90209 20.186 6.03959 17.5499C7.17709 14.9138 8.72084 12.6208 10.6708 10.6708C12.6208 8.72075 14.9139 7.177 17.55 6.0395C20.1861 4.902 23.0028 4.33325 26 4.33325C28.9972 4.33325 31.8139 4.902 34.45 6.0395C37.0861 7.177 39.3792 8.72075 41.3292 10.6708C43.2792 12.6208 44.8229 14.9138 45.9604 17.5499C47.0979 20.186 47.6667 23.0027 47.6667 25.9999C47.6667 28.9971 47.0979 31.8138 45.9604 34.4499C44.8229 37.086 43.2792 39.3791 41.3292 41.3291C39.3792 43.2791 37.0861 44.8228 34.45 45.9603C31.8139 47.0978 28.9972 47.6666 26 47.6666ZM26 43.3332C30.8389 43.3332 34.9375 41.6541 38.2958 38.2957C41.6542 34.9374 43.3333 30.8388 43.3333 25.9999C43.3333 21.161 41.6542 17.0624 38.2958 13.7041C34.9375 10.3458 30.8389 8.66658 26 8.66658C21.1611 8.66658 17.0625 10.3458 13.7042 13.7041C10.3458 17.0624 8.66668 21.161 8.66668 25.9999C8.66668 30.8388 10.3458 34.9374 13.7042 38.2957C17.0625 41.6541 21.1611 43.3332 26 43.3332Z" fill="white"/>
</svg>
