<svg width="83" height="83" viewBox="0 0 83 83" fill="none" xmlns="http://www.w3.org/2000/svg">
<path d="M58.7917 13.8341C57.8745 13.8341 56.9948 13.4698 56.3463 12.8212C55.6977 12.1727 55.3333 11.293 55.3333 10.3758C55.3333 9.45861 55.6977 8.57897 56.3463 7.9304C56.9948 7.28184 57.8745 6.91748 58.7917 6.91748H72.625C73.5422 6.91748 74.4219 7.28184 75.0704 7.9304C75.719 8.57897 76.0833 9.45861 76.0833 10.3758V24.2091C76.0833 25.1264 75.719 26.006 75.0704 26.6546C74.4219 27.3031 73.5422 27.6675 72.625 27.6675C71.7078 27.6675 70.8282 27.3031 70.1796 26.6546C69.531 26.006 69.1667 25.1264 69.1667 24.2091V18.7242L49.1325 38.7584C48.484 39.4067 47.6045 39.7709 46.6875 39.7709C45.7705 39.7709 44.891 39.4067 44.2425 38.7584L34.5833 29.0992L16.2784 47.4042C15.6261 48.0341 14.7525 48.3827 13.8458 48.3749C12.939 48.367 12.0716 48.0033 11.4304 47.3621C10.7892 46.7209 10.4255 45.8535 10.4176 44.9467C10.4097 44.0399 10.7583 43.1664 11.3883 42.5141L32.1383 21.7641C32.7868 21.1158 33.6663 20.7516 34.5833 20.7516C35.5004 20.7516 36.3798 21.1158 37.0284 21.7641L46.6875 31.4232L64.2766 13.8341H58.7917ZM17.2917 62.2508V72.6258C17.2917 73.543 16.9273 74.4227 16.2787 75.0712C15.6302 75.7198 14.7505 76.0841 13.8333 76.0841C12.9161 76.0841 12.0365 75.7198 11.3879 75.0712C10.7394 74.4227 10.375 73.543 10.375 72.6258V62.2508C10.375 61.3336 10.7394 60.454 11.3879 59.8054C12.0365 59.1568 12.9161 58.7925 13.8333 58.7925C14.7505 58.7925 15.6302 59.1568 16.2787 59.8054C16.9273 60.454 17.2917 61.3336 17.2917 62.2508ZM34.5833 48.4175C34.5833 47.5003 34.219 46.6206 33.5704 45.9721C32.9218 45.3235 32.0422 44.9591 31.125 44.9591C30.2078 44.9591 29.3282 45.3235 28.6796 45.9721C28.031 46.6206 27.6667 47.5003 27.6667 48.4175V72.6258C27.6667 73.543 28.031 74.4227 28.6796 75.0712C29.3282 75.7198 30.2078 76.0841 31.125 76.0841C32.0422 76.0841 32.9218 75.7198 33.5704 75.0712C34.219 74.4227 34.5833 73.543 34.5833 72.6258V48.4175ZM48.4167 51.8758C49.3339 51.8758 50.2135 52.2402 50.8621 52.8887C51.5106 53.5373 51.875 54.4169 51.875 55.3341V72.6258C51.875 73.543 51.5106 74.4227 50.8621 75.0712C50.2135 75.7198 49.3339 76.0841 48.4167 76.0841C47.4995 76.0841 46.6198 75.7198 45.9713 75.0712C45.3227 74.4227 44.9583 73.543 44.9583 72.6258V55.3341C44.9583 54.4169 45.3227 53.5373 45.9713 52.8887C46.6198 52.2402 47.4995 51.8758 48.4167 51.8758ZM69.1667 38.0425C69.1667 37.1253 68.8023 36.2456 68.1538 35.5971C67.5052 34.9485 66.6255 34.5841 65.7083 34.5841C64.7911 34.5841 63.9115 34.9485 63.2629 35.5971C62.6144 36.2456 62.25 37.1253 62.25 38.0425V72.6258C62.25 73.543 62.6144 74.4227 63.2629 75.0712C63.9115 75.7198 64.7911 76.0841 65.7083 76.0841C66.6255 76.0841 67.5052 75.7198 68.1538 75.0712C68.8023 74.4227 69.1667 73.543 69.1667 72.6258V38.0425Z" fill="white"/>
</svg>
