<svg width="78" height="65" viewBox="0 0 78 65" fill="none" xmlns="http://www.w3.org/2000/svg">
<path d="M13.8368 23.9167C14.754 23.9167 15.6336 24.2766 16.2822 24.9174C16.9308 25.5581 17.2951 26.4272 17.2951 27.3333C22.7287 27.3254 28.0055 29.1314 32.2697 32.4583H39.7743C44.3808 32.4583 48.5239 34.44 51.3735 37.5833H62.2535C65.5225 37.5824 68.7248 38.4971 71.4891 40.2212C74.2533 41.9452 76.4663 44.4081 77.8713 47.3243C69.6923 57.9843 56.4504 64.9167 41.5035 64.9167C31.8547 64.9167 23.693 62.8564 17.0842 59.2518C16.8414 59.9109 16.3992 60.4802 15.8176 60.8824C15.236 61.2846 14.5432 61.5002 13.8333 61.5H3.45833C2.54113 61.5 1.66149 61.14 1.01292 60.4993C0.364359 59.8585 0 58.9895 0 58.0833V27.3333C0 26.4272 0.364359 25.5581 1.01292 24.9174C1.66149 24.2766 2.54113 23.9167 3.45833 23.9167H13.8368ZM17.2951 34.1667V51.3252L17.4508 51.4345C23.655 55.7395 31.744 58.0833 41.5035 58.0833C51.8923 58.0833 61.5549 54.1337 68.5995 47.3892L69.0595 46.9348L68.6445 46.5931C67.0108 45.3306 65.0316 44.5808 62.9624 44.4406L62.2535 44.4167H54.9495C55.2031 45.5168 55.3322 46.6557 55.3368 47.8333V51.25H24.2118V44.4167L47.6939 44.4133L47.5763 44.1433C46.9133 42.7755 45.8938 41.6067 44.6223 40.7571C43.3508 39.9074 41.8732 39.4075 40.3415 39.3088L39.7743 39.2917H29.6414C28.0318 37.6693 26.1108 36.3804 23.9908 35.5004C21.8709 34.6204 19.5946 34.167 17.2951 34.1667ZM10.3785 30.75H6.92013V54.6667H10.3785V30.75ZM58.7951 10.25C61.5467 10.25 64.1857 11.3299 66.1314 13.2522C68.077 15.1744 69.1701 17.7815 69.1701 20.5C69.1701 23.2185 68.077 25.8256 66.1314 27.7478C64.1857 29.6701 61.5467 30.75 58.7951 30.75C56.0435 30.75 53.4046 29.6701 51.4589 27.7478C49.5132 25.8256 48.4201 23.2185 48.4201 20.5C48.4201 17.7815 49.5132 15.1744 51.4589 13.2522C53.4046 11.3299 56.0435 10.25 58.7951 10.25ZM58.7951 17.0833C57.8779 17.0833 56.9983 17.4433 56.3497 18.0841C55.7012 18.7248 55.3368 19.5938 55.3368 20.5C55.3368 21.4062 55.7012 22.2752 56.3497 22.9159C56.9983 23.5567 57.8779 23.9167 58.7951 23.9167C59.7123 23.9167 60.592 23.5567 61.2405 22.9159C61.8891 22.2752 62.2535 21.4062 62.2535 20.5C62.2535 19.5938 61.8891 18.7248 61.2405 18.0841C60.592 17.4433 59.7123 17.0833 58.7951 17.0833ZM34.5868 0C37.3384 0 39.9773 1.07991 41.923 3.00216C43.8687 4.9244 44.9618 7.53153 44.9618 10.25C44.9618 12.9685 43.8687 15.5756 41.923 17.4978C39.9773 19.4201 37.3384 20.5 34.5868 20.5C31.8352 20.5 29.1962 19.4201 27.2506 17.4978C25.3049 15.5756 24.2118 12.9685 24.2118 10.25C24.2118 7.53153 25.3049 4.9244 27.2506 3.00216C29.1962 1.07991 31.8352 0 34.5868 0ZM34.5868 6.83333C33.6696 6.83333 32.7899 7.1933 32.1414 7.83405C31.4928 8.4748 31.1285 9.34384 31.1285 10.25C31.1285 11.1562 31.4928 12.0252 32.1414 12.6659C32.7899 13.3067 33.6696 13.6667 34.5868 13.6667C35.504 13.6667 36.3836 13.3067 37.0322 12.6659C37.6808 12.0252 38.0451 11.1562 38.0451 10.25C38.0451 9.34384 37.6808 8.4748 37.0322 7.83405C36.3836 7.1933 35.504 6.83333 34.5868 6.83333Z" fill="white"/>
</svg>
