<svg width="50" height="50" viewBox="0 0 50 50" fill="none" xmlns="http://www.w3.org/2000/svg">
<g clip-path="url(#clip0_1155_1362)">
<path d="M19.6433 44.165C16.1711 44.165 13.2197 42.9498 10.7891 40.5192C8.35859 38.0886 7.14331 35.1373 7.14331 31.665V19.165C7.14331 15.6928 8.35859 12.7414 10.7891 10.3109C13.2197 7.88032 16.1711 6.66504 19.6433 6.66504H32.1433C35.6155 6.66504 38.5669 7.88032 40.9975 10.3109C43.428 12.7414 44.6433 15.6928 44.6433 19.165V31.665C44.6433 35.1373 43.428 38.0886 40.9975 40.5192C38.5669 42.9498 35.6155 44.165 32.1433 44.165H19.6433ZM23.81 33.7484L36.31 21.2484L33.3933 18.3317L23.81 27.915L19.2266 23.3317L16.31 26.2484L23.81 33.7484ZM19.6433 39.9984H32.1433C34.435 39.9984 36.3968 39.1824 38.0287 37.5505C39.6607 35.9185 40.4766 33.9567 40.4766 31.665V19.165C40.4766 16.8734 39.6607 14.9116 38.0287 13.2796C36.3968 11.6477 34.435 10.8317 32.1433 10.8317H19.6433C17.3516 10.8317 15.3898 11.6477 13.7579 13.2796C12.1259 14.9116 11.31 16.8734 11.31 19.165V31.665C11.31 33.9567 12.1259 35.9185 13.7579 37.5505C15.3898 39.1824 17.3516 39.9984 19.6433 39.9984Z" fill="white"/>
</g>
<defs>
<clipPath id="clip0_1155_1362">
<rect width="50" height="50" fill="white"/>
</clipPath>
</defs>
</svg>
